<?xml version="1.0" encoding="utf-8"?>
<!-- Generator: Adobe Illustrator 24.1.2, SVG Export Plug-In . SVG Version: 6.00 Build 0)  -->
<svg version="1.1" id="Layer_1" xmlns="http://www.w3.org/2000/svg" xmlns:xlink="http://www.w3.org/1999/xlink" x="0px" y="0px"
	 width="243.72px" height="226.4px" viewBox="0 0 243.72 226.4" style="enable-background:new 0 0 243.72 226.4;"
	 xml:space="preserve">
<g>
	<path d="M199.61,101.24h-12.44V88.81h-12.44V76.38H162.3h-12.44V63.95h-12.44h-12.44V51.53h-12.44V39.1h-12.44V26.67H87.68V39.1
		v12.43H75.24V39.1H62.8V26.67H50.36V39.1v12.43v12.43H37.93v12.43v12.43H25.49v12.43v12.43v12.43h12.44v12.43h12.44v12.43v12.43
		v12.43v12.43H62.8v-12.43h12.44v12.43v12.43h12.44v-12.43h12.44v-12.43h12.44h12.44v12.43h12.44v12.43h12.44v-12.43v-12.43h12.44
		v12.43h12.44v12.43h12.44v-12.43v-12.43v-12.43v-12.43h12.44v-12.43V126.1h12.44v-12.43h-12.44V101.24z M100.11,88.81H87.68V76.38
		h12.44V88.81z M50.36,76.38H62.8v12.43H50.36V76.38z"/>
	<polygon points="212.05,88.81 212.05,101.24 212.05,113.67 224.49,113.67 224.49,101.24 224.49,88.81 	"/>
</g>
</svg>
